<svg width="200" height="200" viewBox="-75 -75 150 150" xmlns="http://www.w3.org/2000/svg">
    <title>Simplified Static React Pulse Icon (Enlarged)</title>
    <desc>Three solid indigo strands in orbitals around a flaring indigo core.</desc>

    <defs>
        <linearGradient id="indigoStrandGradient1" x1="0%" y1="0%" x2="100%" y2="0%">
            <stop offset="0%" stop-color="#748FFC" stop-opacity="0.4" />
            <stop offset="50%" stop-color="#4C6EF5" stop-opacity="1" />
            <stop offset="100%" stop-color="#748FFC" stop-opacity="0.4" />
        </linearGradient>
        <linearGradient id="indigoStrandGradient2" x1="0%" y1="0%" x2="100%" y2="0%">
            <stop offset="0%" stop-color="#BAC8FF" stop-opacity="0.3" />
            <stop offset="50%" stop-color="#748FFC" stop-opacity="0.9" />
            <stop offset="100%" stop-color="#BAC8FF" stop-opacity="0.3" />
        </linearGradient>

        <filter id="indigoCoreFlareEffect" x="-100%" y="-100%" width="300%" height="300%">
            <feGaussianBlur in="SourceAlpha" stdDeviation="8" result="glowBlurOuter" />
            <feFlood flood-color="#748FFC" flood-opacity="0.5" result="glowColorOuter" />
            <feComposite in="glowColorOuter" in2="glowBlurOuter" operator="in"
                result="coloredGlowOuter" />
            <feGaussianBlur in="SourceAlpha" stdDeviation="2" result="glowBlurInner" />
            <feFlood flood-color="#EDF2FF" flood-opacity="0.7" result="glowColorInner" />
            <feComposite in="glowColorInner" in2="glowBlurInner" operator="in"
                result="coloredGlowInner" />
            <feMerge>
                <feMergeNode in="coloredGlowOuter" />
                <feMergeNode in="coloredGlowInner" />
                <feMergeNode in="SourceGraphic" />
            </feMerge>
        </filter>
    </defs>

    <g id="orbital-strands" stroke-linecap="round" stroke-width="3.5">
        <path id="strand1" d="M0,-60 A60,60 0 1,0 0,60 A60,60 0 1,0 0,-60 Z"
            fill="none" stroke="url(#indigoStrandGradient1)">
        </path>

        <path id="strand2" d="M-55,15 A55,55 0 1,1 55,15 A55,55 0 1,1 -55,15 Z"
            fill="none" stroke="url(#indigoStrandGradient2)" transform="rotate(30 0 0)">
        </path>

        <path id="strand3" d="M15,-50 A50,50 0 1,0 15,50 A50,50 0 1,0 15,-50 Z"
            fill="none" stroke="#748FFC" opacity="0.6" transform="rotate(-40 0 0)">
        </path>
    </g>

    <g id="core">
        <circle cx="0" cy="0" r="12" fill="#4C6EF5" opacity="0.3"
            filter="url(#indigoCoreFlareEffect)">
        </circle>
        <circle cx="0" cy="0" r="8" fill="#4C6EF5" filter="url(#indigoCoreFlareEffect)">
        </circle>
    </g>
</svg> 